<svg xmlns="http://www.w3.org/2000/svg" xmlns:xlink="http://www.w3.org/1999/xlink" width="1700" zoomAndPan="magnify" viewBox="0 0 1275 809.999993" height="1080" preserveAspectRatio="xMidYMid meet" version="1.0"><defs><clipPath id="bd5979b290"><path d="M 266.675781 38 L 870 38 L 870 775.925781 L 266.675781 775.925781 Z M 266.675781 38 " clip-rule="nonzero"/></clipPath><clipPath id="57fb251ad7"><path d="M 405 34.175781 L 1008.425781 34.175781 L 1008.425781 767 L 405 767 Z M 405 34.175781 " clip-rule="nonzero"/></clipPath></defs><g clip-path="url(#bd5979b290)"><path fill="#ddc3a5" d="M 700.320312 404.832031 L 842.921875 538.160156 L 869.195312 538.160156 L 869.195312 536.609375 L 720.796875 397.109375 L 856.816406 269.578125 L 856.816406 267.652344 L 831.707031 267.652344 L 700.304688 390.921875 L 700.304688 267.652344 L 679.457031 267.652344 L 679.457031 753.917969 C 665.703125 755.59375 651.742188 756.5625 637.535156 756.5625 C 443.695312 756.5625 286.007812 598.863281 286.007812 405.035156 C 285.992188 230.808594 413.414062 85.871094 579.949219 58.300781 L 579.949219 38.671875 C 402.714844 66.414062 266.675781 220.125 266.675781 405.035156 C 266.675781 609.53125 433.042969 775.894531 637.535156 775.894531 C 658.996094 775.894531 680.003906 773.953125 700.480469 770.445312 L 700.480469 750.816406 C 700.433594 750.832031 700.367188 750.832031 700.320312 750.847656 Z M 700.320312 404.832031 " fill-opacity="1" fill-rule="nonzero"/></g><g clip-path="url(#57fb251ad7)"><path fill="#f7931e" d="M 637.535156 34.175781 C 624.613281 34.175781 611.84375 34.851562 599.265625 36.148438 L 599.265625 53.429688 L 599.09375 53.507812 L 599.09375 436.148438 C 599.09375 492.179688 562.375 523.089844 512.527344 523.089844 C 462.679688 523.089844 425.191406 487.527344 425.191406 436.148438 L 405.863281 436.148438 C 405.863281 499.136719 451.070312 542.421875 512.527344 542.421875 C 573.964844 542.421875 619.566406 502.613281 619.566406 436.148438 L 619.566406 53.992188 C 625.519531 53.679688 631.503906 53.507812 637.519531 53.507812 C 831.363281 53.507812 989.046875 211.210938 989.046875 405.035156 C 989.046875 570.539062 874.050781 709.601562 719.792969 746.757812 L 719.792969 766.589844 C 884.8125 729.054688 1008.378906 581.253906 1008.378906 405.050781 C 1008.394531 200.542969 842.03125 34.175781 637.535156 34.175781 Z M 637.535156 34.175781 " fill-opacity="1" fill-rule="nonzero"/></g></svg>