<svg xmlns="http://www.w3.org/2000/svg" xmlns:xlink="http://www.w3.org/1999/xlink" width="1700" zoomAndPan="magnify" viewBox="0 0 1275 809.999993" height="1080" preserveAspectRatio="xMidYMid meet" version="1.0"><defs><clipPath id="1bd4ce0264"><path d="M 614 432 L 1033.855469 432 L 1033.855469 805 L 614 805 Z M 614 432 " clip-rule="nonzero"/></clipPath><clipPath id="c8c8a2934b"><path d="M 241.105469 645 L 336 645 L 336 802 L 241.105469 802 Z M 241.105469 645 " clip-rule="nonzero"/></clipPath></defs><rect x="-127.5" width="1530" fill="#ffffff" y="-80.999999" height="971.999992" fill-opacity="1"/><rect x="-127.5" width="1530" fill="#ffffff" y="-80.999999" height="971.999992" fill-opacity="1"/><g clip-path="url(#1bd4ce0264)"><path fill="#afcbd5" d="M 693.566406 432.894531 L 614.535156 496.835938 L 766.3125 687.648438 C 797.96875 727.449219 831.402344 776.03125 757.539062 795.820312 L 757.539062 804.1875 L 1033.789062 804.1875 L 1033.789062 795.820312 C 982.308594 782.027344 950.136719 754.015625 921.269531 717.886719 L 703.402344 445.226562 Z M 693.566406 432.894531 " fill-opacity="1" fill-rule="nonzero"/></g><path fill="#afcbd5" d="M 853.375 215.523438 C 863.148438 226.371094 869.792969 239.65625 869.792969 254.15625 C 869.792969 272.042969 861.609375 287.402344 849.933594 302.527344 C 846.277344 307.261719 841.410156 312.121094 836.882812 316.941406 L 875.171875 286.273438 C 920.4375 249.691406 948.128906 228.804688 969.371094 215.523438 Z M 853.375 215.523438 " fill-opacity="1" fill-rule="nonzero"/><path fill="#800000" d="M 333.550781 702.742188 C 333.5 702.835938 333.492188 702.949219 333.460938 703.042969 C 333.515625 702.902344 333.539062 702.789062 333.550781 702.742188 Z M 333.550781 702.742188 " fill-opacity="1" fill-rule="nonzero"/><g clip-path="url(#c8c8a2934b)"><path fill="#f2b418" d="M 289.316406 645.253906 L 289.257812 645.253906 C 274.992188 645.253906 265.054688 649.429688 255.234375 659.476562 L 255.0625 659.648438 C 245.710938 669 241.132812 680.15625 241.132812 697.476562 C 241.132812 724.386719 253.242188 748.660156 282.207031 773.507812 L 282.257812 773.507812 C 297.410156 786.371094 315.257812 795.628906 335.804688 801.710938 C 332.144531 799.835938 328.566406 797.828125 325.253906 795.394531 C 313.925781 787.109375 305.40625 773.53125 305.40625 759.125 C 305.40625 743.632812 312.128906 735.425781 321.066406 722.1875 L 321.117188 722.140625 L 321.164062 722.089844 C 328.675781 711.09375 333.507812 702.246094 333.550781 702.71875 C 334.738281 698.867188 335.589844 693.894531 335.589844 687.410156 C 335.589844 674.839844 331.949219 666.5 322.628906 657.847656 L 322.542969 657.753906 L 322.464844 657.675781 C 313.476562 649.128906 303.734375 645.230469 289.316406 645.230469 Z M 289.316406 645.253906 " fill-opacity="1" fill-rule="nonzero"/></g><path fill="#afcbd5" d="M 567.132812 530.039062 C 558.203125 540.144531 548.546875 549.441406 539.410156 557.613281 L 504.945312 585.5 C 485.722656 602.699219 457.203125 627.238281 457.15625 653.035156 L 457.070312 653.035156 C 456.910156 675.960938 456.558594 696.332031 455.835938 711.960938 C 454.902344 732.09375 453.839844 745.480469 451.164062 756.023438 C 447.097656 772.921875 439.195312 787.753906 426.492188 797.734375 C 417.722656 804.625 406.984375 808.046875 395.757812 809.941406 C 395.910156 809.941406 396.039062 810 396.1875 810 C 436.054688 810 468.648438 801.710938 495.3125 785.832031 C 523.105469 769.15625 540.949219 749.714844 550.992188 727.070312 C 560.753906 704.753906 567.136719 663.277344 567.136719 605.246094 Z M 567.132812 530.039062 " fill-opacity="1" fill-rule="nonzero"/><path fill="#f2b418" d="M 435.328125 215.515625 C 441.503906 221.023438 446.816406 227.21875 450.066406 234.792969 C 453.824219 243.101562 454.789062 250.898438 455.773438 261.585938 C 456.777344 272.429688 457.222656 285.757812 457.222656 301.964844 L 457.222656 583.105469 C 465.203125 574.441406 473.644531 566.445312 481.558594 559.363281 L 516.019531 531.476562 C 537.390625 512.359375 567.132812 485.070312 567.132812 456.398438 L 567.132812 301.996094 C 567.132812 286.117188 567.546875 273.121094 568.464844 262.621094 C 569.378906 252.1875 570.09375 244.8125 573.890625 236.464844 C 577.464844 228.394531 582.59375 221.546875 588.503906 215.523438 Z M 435.328125 215.515625 " fill-opacity="1" fill-rule="nonzero"/><path fill="#f2b418" d="M 511.910156 0 C 510.664062 0 509.417969 4.183594 506.410156 12.539062 C 496.988281 38.726562 476.214844 59.492188 450.027344 68.914062 C 433.320312 74.925781 433.316406 73.902344 450.027344 79.914062 C 476.214844 89.335938 496.988281 110.109375 506.410156 136.296875 C 512.425781 153.007812 511.398438 153.007812 517.410156 136.296875 C 526.832031 110.109375 547.609375 89.335938 573.792969 79.914062 C 590.503906 73.902344 590.503906 74.925781 573.792969 68.914062 C 547.609375 59.492188 526.832031 38.726562 517.410156 12.539062 C 514.40625 4.183594 513.15625 0 511.910156 0 Z M 511.910156 0 " fill-opacity="1" fill-rule="nonzero"/></svg>